<svg width="111" height="40" viewBox="0 0 111 40" fill="none" xmlns="http://www.w3.org/2000/svg">
<path d="M11.0311 35.3333V34.7492L12.7508 34.4571V12.8444L11.0311 12.5523V11.9682H15.2077V15.0349C15.6172 13.9918 16.1729 13.1712 16.8748 12.5732C17.5651 11.9752 18.3957 11.6761 19.3668 11.6761C20.525 11.6761 21.5487 12.003 22.4378 12.6566C23.327 13.3103 24.0172 14.2282 24.5086 15.4104C25 16.5926 25.2457 17.9694 25.2457 19.541C25.2457 21.1126 25 22.4895 24.5086 23.6716C24.0172 24.8538 23.327 25.7647 22.4378 26.4045C21.5487 27.0443 20.525 27.3641 19.3668 27.3641C18.3957 27.3641 17.5651 27.0721 16.8748 26.4879C16.1729 25.8899 15.6172 25.0763 15.2077 24.0471V34.4571L17.5241 34.7492V35.3333H11.0311ZM19.1211 26.634C21.4025 26.634 22.5431 24.7564 22.5431 21.0013V18.0807C22.5431 14.2978 21.4025 12.4063 19.1211 12.4063C18.3957 12.4063 17.7406 12.6566 17.1556 13.1573C16.5707 13.658 16.1027 14.3256 15.7517 15.16C15.4124 15.9945 15.2311 16.8985 15.2077 17.8721V21.0013C15.2077 21.9888 15.3773 22.9206 15.7166 23.7968C16.0559 24.6591 16.5239 25.3475 17.1205 25.8621C17.7172 26.3767 18.384 26.634 19.1211 26.634ZM26.9655 27.0721V26.4879L28.6853 26.1959V12.8235L26.9655 12.5315V11.9474H31.1421V14.2004C32.1716 12.5176 33.3299 11.6761 34.6168 11.6761C35.2485 11.6761 35.7984 11.8709 36.2664 12.2603C36.7461 12.6358 36.9859 13.1712 36.9859 13.8666C36.9859 14.3812 36.8455 14.8054 36.5647 15.1392C36.2839 15.4869 35.9154 15.6607 35.4591 15.6607C34.9327 15.6607 34.5056 15.4173 34.1781 14.9306C34.3653 14.6524 34.4588 14.3604 34.4588 14.0544C34.4588 13.7206 34.3594 13.4494 34.1605 13.2408C33.9733 13.0461 33.7276 12.9487 33.4235 12.9487C33.0725 12.9487 32.7215 13.1365 32.3705 13.512C32.0079 13.8875 31.5984 14.4786 31.1421 15.2852V26.1959L33.1076 26.4879V27.0721H26.9655ZM40.443 8.56776C39.9868 8.56776 39.5948 8.37305 39.2672 7.98363C38.9397 7.60812 38.7759 7.14917 38.7759 6.60676C38.7759 6.06436 38.9338 5.6054 39.2497 5.22989C39.5773 4.85438 39.9751 4.66663 40.443 4.66663C40.8876 4.66663 41.2678 4.85438 41.5837 5.22989C41.8879 5.6054 42.04 6.06436 42.04 6.60676C42.04 7.14917 41.8879 7.60812 41.5837 7.98363C41.2678 8.37305 40.8876 8.56776 40.443 8.56776ZM43.7422 27.0721H37.8458V26.4879L39.5656 26.1959V12.8444L37.8458 12.5523V11.9682H42.0224V26.1959L43.7422 26.4879V27.0721ZM50.1476 27.3641C48.8022 27.3641 47.679 27.0234 46.7782 26.3419C45.8773 25.6604 45.4269 24.7773 45.4269 23.6925C45.4269 23.1223 45.5556 22.6772 45.813 22.3573C46.0704 22.0374 46.4097 21.8775 46.8308 21.8775C47.1584 21.8775 47.4392 21.9749 47.6732 22.1696C47.8955 22.3643 48.0593 22.6355 48.1645 22.9832C47.8019 23.456 47.6205 23.9567 47.6205 24.4852C47.6205 25.0833 47.8487 25.6048 48.3049 26.0498C48.7612 26.4949 49.3754 26.7174 50.1476 26.7174C51.1771 26.7174 52.0195 26.4462 52.6746 25.9038C53.3298 25.3475 53.6574 24.5965 53.6574 23.6508C53.6574 23.1083 53.5228 22.705 53.2537 22.4408C52.9729 22.1626 52.4289 21.8497 51.6217 21.502L47.9189 19.8956C46.4565 19.2698 45.7252 18.1085 45.7252 16.4117C45.7252 15.0349 46.1289 13.9014 46.9361 13.0113C47.7317 12.1212 48.8373 11.6761 50.2529 11.6761C51.4111 11.6761 52.4055 11.996 53.2362 12.6358C54.0668 13.2616 54.4822 14.1587 54.4822 15.3269C54.4822 15.7998 54.371 16.1753 54.1487 16.4535C53.9381 16.7455 53.6632 16.8916 53.3239 16.8916C52.9729 16.8916 52.6863 16.7803 52.464 16.5578C52.2534 16.3213 52.1481 16.0084 52.1481 15.619C52.3587 15.4243 52.505 15.2157 52.5869 14.9932C52.6688 14.7706 52.7097 14.5064 52.7097 14.2004C52.7097 13.658 52.505 13.206 52.0955 12.8444C51.6977 12.4967 51.0835 12.3229 50.2529 12.3229C49.5275 12.3229 48.9075 12.455 48.3927 12.7192C47.8779 12.9835 47.4918 13.3312 47.2345 13.7623C46.9654 14.1935 46.8308 14.6316 46.8308 15.0766C46.8308 15.5356 46.9771 15.9041 47.2696 16.1823C47.5503 16.4604 48.0768 16.7594 48.849 17.0793L52.2885 18.5396C53.0958 18.9012 53.7042 19.388 54.1136 20C54.5231 20.6258 54.7278 21.4394 54.7278 22.4408C54.7278 23.8594 54.3476 25.0346 53.5872 25.9664C52.8384 26.8982 51.6919 27.3641 50.1476 27.3641ZM61.6948 27.3641C60.6184 27.3641 59.7527 27.0443 59.0975 26.4045C58.4541 25.7647 58.1323 24.7425 58.1323 23.3378V12.8235L56.395 12.5315V11.9474H58.1323V9.5274L60.5892 8.79724V11.9474H63.7831V12.5315L60.5892 12.8235V23.2752C60.5892 25.3475 61.2151 26.3836 62.4669 26.3836C62.7243 26.3836 62.97 26.335 63.204 26.2376C63.4496 26.1402 63.6368 26.0429 63.7655 25.9455C63.9059 25.8482 63.9937 25.7786 64.0288 25.7369L64.3446 26.1959C63.6076 26.9747 62.7243 27.3641 61.6948 27.3641ZM67.7667 8.56776C67.3104 8.56776 66.9185 8.37305 66.5909 7.98363C66.2633 7.60812 66.0995 7.14917 66.0995 6.60676C66.0995 6.06436 66.2575 5.6054 66.5734 5.22989C66.8892 4.85438 67.287 4.66663 67.7667 4.66663C68.2113 4.66663 68.5856 4.85438 68.8898 5.22989C69.2057 5.6054 69.3636 6.06436 69.3636 6.60676C69.3636 7.14917 69.2057 7.60812 68.8898 7.98363C68.5856 8.37305 68.2113 8.56776 67.7667 8.56776ZM71.0659 27.0721H65.1694V26.4879L66.8892 26.1959V12.8444L65.1694 12.5523V11.9682H69.3461V26.1959L71.0659 26.4879V27.0721ZM72.2417 27.0721V26.4879L73.9614 26.1959V12.8235L72.2417 12.5315V11.9474H76.4183V15.0975C77.0267 14.0544 77.7403 13.2269 78.5593 12.6149C79.3782 11.9891 80.2615 11.6761 81.2091 11.6761C82.3908 11.6761 83.3209 12.0308 83.9994 12.7401C84.678 13.4355 85.0173 14.4786 85.0173 15.8693V26.1959L86.7371 26.4879V27.0721H81.0863V26.4879L82.5604 26.1959V15.9111C82.5604 14.9097 82.3849 14.1309 82.0339 13.5746C81.6947 13.0182 81.1624 12.7401 80.437 12.7401C79.6882 12.7401 78.9629 13.0669 78.2609 13.7206C77.5707 14.3743 76.9565 15.174 76.4183 16.1197V26.1959L77.8924 26.4879V27.0721H72.2417ZM94.7218 27.3641C93.5051 27.3641 92.4054 27.0373 91.4226 26.3836C90.4399 25.73 89.6619 24.8121 89.0886 23.6299C88.5153 22.4477 88.2287 21.0778 88.2287 19.5201C88.2287 17.9625 88.5153 16.5926 89.0886 15.4104C89.6502 14.2282 90.4106 13.3103 91.37 12.6566C92.3293 12.003 93.3939 11.6761 94.5639 11.6761C95.6051 11.6761 96.5352 11.9543 97.3541 12.5106C98.1731 13.053 98.8107 13.804 99.267 14.7637C99.7232 15.7233 99.9572 16.829 99.9689 18.0807H90.9312V20.9805C90.9312 22.6911 91.2588 24.0749 91.914 25.1319C92.5574 26.1889 93.4934 26.7174 94.7218 26.7174C95.8449 26.7174 96.8452 26.3419 97.7227 25.5909C98.5884 24.826 99.1207 23.8385 99.3196 22.6285H99.8812C99.6472 24.0749 99.0622 25.2293 98.1263 26.0916C97.2021 26.9399 96.0672 27.3641 94.7218 27.3641ZM90.9663 17.3505H97.2664C97.2664 15.6538 97.05 14.3951 96.6171 13.5746C96.1725 12.7401 95.4823 12.3229 94.5463 12.3229C93.4466 12.3229 92.5925 12.7818 91.9842 13.6997C91.3875 14.6176 91.0482 15.8346 90.9663 17.3505Z" fill="url(#paint0_linear_304_538)"/>
<defs>
<linearGradient id="paint0_linear_304_538" x1="8.63976" y1="4.30466" x2="93.686" y2="37.6649" gradientUnits="userSpaceOnUse">
<stop stop-color="#E90DDA"/>
<stop offset="1" stop-color="#15CFF1"/>
</linearGradient>
</defs>
</svg>
