<svg width="103" height="33" viewBox="0 0 103 33" fill="none" xmlns="http://www.w3.org/2000/svg">
<path d="M0.621124 32.9834V32.3555L2.58882 32.0415V8.80783L0.621124 8.49387V7.86593H5.3998V11.1626C5.8683 10.0413 6.50412 9.15918 7.30726 8.51629C8.09701 7.8734 9.0474 7.55196 10.1584 7.55196C11.4836 7.55196 12.6548 7.90331 13.6721 8.606C14.6894 9.30869 15.4792 10.2954 16.0414 11.5663C16.6036 12.8371 16.8847 14.3172 16.8847 16.0067C16.8847 17.6961 16.6036 19.1763 16.0414 20.4471C15.4792 21.7179 14.6894 22.6972 13.6721 23.3849C12.6548 24.0727 11.4836 24.4165 10.1584 24.4165C9.0474 24.4165 8.09701 24.1026 7.30726 23.4746C6.50412 22.8317 5.8683 21.9571 5.3998 20.8508V32.0415L8.05016 32.3555V32.9834H0.621124ZM9.87731 23.6316C12.4875 23.6316 13.7926 21.6133 13.7926 17.5765V14.4368C13.7926 10.3702 12.4875 8.33688 9.87731 8.33688C9.0474 8.33688 8.2978 8.606 7.62852 9.14423C6.95923 9.68246 6.42381 10.4001 6.02224 11.2972C5.63405 12.1942 5.42658 13.166 5.3998 14.2126V17.5765C5.3998 18.638 5.5939 19.6397 5.98208 20.5816C6.37026 21.5086 6.90569 22.2487 7.58836 22.8018C8.27103 23.355 9.03401 23.6316 9.87731 23.6316ZM18.8524 24.1026V23.4746L20.8201 23.1607V8.78541L18.8524 8.47144V7.8435H23.6311V10.2655C24.809 8.45649 26.1342 7.55196 27.6066 7.55196C28.3294 7.55196 28.9586 7.76127 29.494 8.1799C30.0428 8.58357 30.3172 9.15918 30.3172 9.90672C30.3172 10.4599 30.1566 10.9159 29.8353 11.2747C29.5141 11.6485 29.0924 11.8354 28.5704 11.8354C27.968 11.8354 27.4794 11.5737 27.1046 11.0505C27.3188 10.7514 27.4259 10.4375 27.4259 10.1086C27.4259 9.74974 27.3121 9.4582 27.0846 9.23393C26.8704 9.02462 26.5893 8.91997 26.2413 8.91997C25.8397 8.91997 25.4381 9.1218 25.0366 9.52548C24.6216 9.92915 24.1531 10.5646 23.6311 11.4317V23.1607L25.8799 23.4746V24.1026H18.8524ZM34.2727 4.21044C33.7506 4.21044 33.3022 4.00113 32.9274 3.58251C32.5526 3.17883 32.3652 2.68545 32.3652 2.10237C32.3652 1.51929 32.5459 1.02591 32.9073 0.622234C33.2821 0.21856 33.7372 0.0167236 34.2727 0.0167236C34.7813 0.0167236 35.2164 0.21856 35.5778 0.622234C35.9258 1.02591 36.0998 1.51929 36.0998 2.10237C36.0998 2.68545 35.9258 3.17883 35.5778 3.58251C35.2164 4.00113 34.7813 4.21044 34.2727 4.21044ZM38.0474 24.1026H31.301V23.4746L33.2687 23.1607V8.80783L31.301 8.49387V7.86593H36.0797V23.1607L38.0474 23.4746V24.1026ZM45.3761 24.4165C43.8367 24.4165 42.5517 24.0502 41.521 23.3177C40.4903 22.5851 39.975 21.6357 39.975 20.4695C39.975 19.8565 40.1222 19.3781 40.4167 19.0342C40.7112 18.6904 41.0993 18.5184 41.5812 18.5184C41.956 18.5184 42.2773 18.6231 42.545 18.8324C42.7993 19.0417 42.9867 19.3332 43.1072 19.707C42.6922 20.2153 42.4848 20.7536 42.4848 21.3217C42.4848 21.9646 42.7458 22.5253 43.2678 23.0037C43.7899 23.4821 44.4926 23.7213 45.3761 23.7213C46.554 23.7213 47.5178 23.4298 48.2674 22.8467C49.017 22.2487 49.3918 21.4413 49.3918 20.4247C49.3918 19.8416 49.2378 19.408 48.93 19.1239C48.6087 18.8249 47.9863 18.4885 47.0627 18.1147L42.8261 16.3879C41.1529 15.7151 40.3163 14.4667 40.3163 12.6427C40.3163 11.1626 40.7781 9.9441 41.7017 8.98724C42.6119 8.03039 43.8769 7.55196 45.4965 7.55196C46.8217 7.55196 47.9595 7.89583 48.9099 8.58357C49.8603 9.25636 50.3354 10.2207 50.3354 11.4766C50.3354 11.9849 50.2083 12.3886 49.954 12.6876C49.713 13.0016 49.3985 13.1585 49.0103 13.1585C48.6087 13.1585 48.2808 13.0389 48.0264 12.7997C47.7855 12.5456 47.665 12.2092 47.665 11.7905C47.906 11.5812 48.0733 11.357 48.167 11.1177C48.2607 10.8785 48.3075 10.5945 48.3075 10.2655C48.3075 9.68246 48.0733 9.19656 47.6048 8.80783C47.1497 8.43406 46.4469 8.24718 45.4965 8.24718C44.6666 8.24718 43.9572 8.38921 43.3682 8.67328C42.7792 8.95734 42.3375 9.33111 42.043 9.79459C41.7352 10.2581 41.5812 10.729 41.5812 11.2074C41.5812 11.7008 41.7486 12.097 42.0832 12.396C42.4045 12.6951 43.0068 13.0165 43.8903 13.3604L47.8256 14.9302C48.7492 15.3189 49.4453 15.8422 49.9138 16.5001C50.3823 17.1728 50.6166 18.0475 50.6166 19.1239C50.6166 20.6489 50.1815 21.9123 49.3115 22.914C48.4548 23.9157 47.143 24.4165 45.3761 24.4165ZM58.5877 24.4165C57.3562 24.4165 56.3657 24.0727 55.6161 23.3849C54.8799 22.6972 54.5118 21.5983 54.5118 20.0883V8.78541L52.524 8.47144V7.8435H54.5118V5.24205L57.3228 4.45713V7.8435H60.977V8.47144L57.3228 8.78541V20.021C57.3228 22.2487 58.0389 23.3625 59.4712 23.3625C59.7656 23.3625 60.0467 23.3102 60.3145 23.2055C60.5956 23.1009 60.8097 22.9962 60.957 22.8916C61.1176 22.7869 61.218 22.7121 61.2581 22.6673L61.6196 23.1607C60.7763 23.9979 59.7656 24.4165 58.5877 24.4165ZM65.5349 4.21044C65.0128 4.21044 64.5644 4.00113 64.1896 3.58251C63.8148 3.17883 63.6274 2.68545 63.6274 2.10237C63.6274 1.51929 63.8081 1.02591 64.1695 0.622234C64.5309 0.21856 64.9861 0.0167236 65.5349 0.0167236C66.0435 0.0167236 66.4719 0.21856 66.8199 0.622234C67.1813 1.02591 67.362 1.51929 67.362 2.10237C67.362 2.68545 67.1813 3.17883 66.8199 3.58251C66.4719 4.00113 66.0435 4.21044 65.5349 4.21044ZM69.3096 24.1026H62.5632V23.4746L64.5309 23.1607V8.80783L62.5632 8.49387V7.86593H67.3419V23.1607L69.3096 23.4746V24.1026ZM70.6549 24.1026V23.4746L72.6226 23.1607V8.78541L70.6549 8.47144V7.8435H75.4336V11.2299C76.1296 10.1086 76.9461 9.21898 77.8831 8.56114C78.8201 7.88836 79.8307 7.55196 80.915 7.55196C82.2669 7.55196 83.3311 7.93321 84.1075 8.6957C84.8838 9.44325 85.272 10.5646 85.272 12.0596V23.1607L87.2397 23.4746V24.1026H80.7744V23.4746L82.461 23.1607V12.1045C82.461 11.028 82.2602 10.1908 81.8587 9.59275C81.4705 8.99472 80.8614 8.6957 80.0315 8.6957C79.1748 8.6957 78.3449 9.04705 77.5418 9.74974C76.752 10.4524 76.0493 11.3121 75.4336 12.3288V23.1607L77.1201 23.4746V24.1026H70.6549ZM96.3754 24.4165C94.9833 24.4165 93.7251 24.0652 92.6007 23.3625C91.4763 22.6598 90.5861 21.6731 89.9302 20.4022C89.2743 19.1314 88.9464 17.6587 88.9464 15.9843C88.9464 14.3098 89.2743 12.8371 89.9302 11.5663C90.5727 10.2954 91.4428 9.30869 92.5404 8.606C93.6381 7.90331 94.8561 7.55196 96.1947 7.55196C97.386 7.55196 98.4502 7.85098 99.3872 8.44901C100.324 9.0321 101.054 9.83944 101.576 10.8711C102.098 11.9027 102.366 13.0913 102.379 14.4368H92.0385V17.5541C92.0385 19.393 92.4133 20.8807 93.1629 22.0169C93.8991 23.1532 94.9699 23.7213 96.3754 23.7213C97.6604 23.7213 98.8049 23.3177 99.8088 22.5103C100.799 21.688 101.408 20.6265 101.636 19.3258H102.278C102.011 20.8807 101.341 22.1216 100.271 23.0485C99.2132 23.9605 97.9148 24.4165 96.3754 24.4165ZM92.0786 13.6519H99.2868C99.2868 11.8279 99.0392 10.4749 98.5439 9.59275C98.0352 8.6957 97.2455 8.24718 96.1746 8.24718C94.9164 8.24718 93.9392 8.74056 93.2432 9.72731C92.5605 10.7141 92.1723 12.0223 92.0786 13.6519Z" fill="url(#paint0_linear_310_544)"/>
<defs>
<linearGradient id="paint0_linear_310_544" x1="-2.11486" y1="-0.372391" x2="93.4974" y2="39.5447" gradientUnits="userSpaceOnUse">
<stop stop-color="#4115F1"/>
<stop offset="0.0001" stop-color="#1915F1"/>
<stop offset="0.0002" stop-color="#4D9BEB"/>
<stop offset="0.0003" stop-color="#40A8EC"/>
<stop offset="0.0004" stop-color="#39628B"/>
<stop offset="0.0005" stop-color="#816CE5"/>
<stop offset="0.0006" stop-color="#816CE5"/>
<stop offset="0.0007" stop-color="#B141E0"/>
<stop offset="0.0008" stop-color="#8767E5"/>
<stop offset="0.0009" stop-color="#B141E0"/>
<stop offset="0.001" stop-color="#0D16E9"/>
</linearGradient>
</defs>
</svg>
